<?xml version="1.0" standalone="no"?>
<!DOCTYPE svg PUBLIC "-//W3C//DTD SVG 20010904//EN"
 "http://www.w3.org/TR/2001/REC-SVG-20010904/DTD/svg10.dtd">
<svg version="1.0" xmlns="http://www.w3.org/2000/svg"
 width="260.000000pt" height="260.000000pt" viewBox="0 0 260.000000 260.000000"
 preserveAspectRatio="xMidYMid meet">
<metadata>
Created by potrace 1.14, written by Peter Selinger 2001-2017
</metadata>
<g transform="translate(0.000000,260.000000) scale(0.100000,-0.100000)"
fill="#000000" stroke="none">
<path d="M1215 2496 c-8 -11 -25 -13 -83 -7 -101 10 -155 -9 -200 -70 -22 -28
-53 -53 -89 -71 -56 -27 -103 -64 -103 -80 0 -5 -7 -16 -15 -24 -23 -24 -30
-82 -11 -103 11 -12 16 -38 17 -87 0 -50 3 -62 9 -43 21 72 108 217 142 238
16 10 20 7 30 -15 11 -24 16 -25 69 -22 31 2 55 0 52 -4 -4 -8 5 -10 52 -13
36 -2 109 -28 130 -46 43 -37 83 -49 160 -49 67 0 79 -3 96 -22 10 -13 18 -29
19 -35 0 -7 4 -13 10 -13 19 0 42 -74 37 -118 -4 -35 -1 -44 14 -53 11 -5 17
-14 14 -20 -4 -5 -11 -6 -17 -3 -6 4 -5 -3 2 -16 7 -13 8 -20 2 -16 -7 4 -9
-6 -4 -31 7 -40 7 -84 -3 -173 -7 -61 6 -126 24 -123 6 2 11 -2 11 -8 0 -27
28 14 41 59 7 26 21 53 31 60 10 7 15 18 12 24 -5 7 -1 9 9 5 9 -3 29 1 45 8
16 8 49 18 74 21 38 5 48 3 66 -16 l21 -22 6 38 c4 22 10 50 15 64 4 14 13 65
20 114 6 49 17 101 24 115 7 14 11 31 9 38 -2 6 1 14 6 18 16 9 13 44 -9 105
-11 30 -20 61 -20 68 0 7 -12 30 -26 51 -27 41 -68 72 -163 124 -31 16 -69 39
-86 51 -16 11 -34 21 -40 21 -5 0 -26 6 -46 13 -20 7 -41 12 -45 11 -29 -5
-65 3 -80 19 -13 13 -38 18 -103 21 -60 2 -88 7 -94 17 -10 18 -19 18 -32 0z
m-159 -25 c-7 -10 -66 -33 -66 -25 0 4 57 32 68 34 2 0 1 -4 -2 -9z"/>
<path d="M718 1808 c-24 -20 -35 -47 -30 -78 4 -26 6 -27 19 -15 8 8 29 15 46
15 l32 -1 -26 -14 c-15 -8 -32 -28 -37 -45 -10 -27 -8 -33 8 -32 3 0 28 -6 55
-13 49 -13 50 -13 23 -24 -16 -6 -28 -13 -28 -17 0 -10 54 6 65 19 6 7 19 17
30 23 14 8 20 22 20 44 0 30 -4 35 -34 42 -31 9 -32 10 -15 23 18 13 18 14 -6
23 -14 6 -32 17 -39 26 -7 9 -22 16 -32 16 -11 0 -19 5 -19 10 0 14 -13 13
-32 -2z"/>
<path d="M1063 1747 c-3 -5 -14 -7 -24 -4 -11 3 -19 2 -19 -2 0 -11 47 -31 70
-31 10 0 22 -4 25 -10 3 -5 0 -10 -8 -10 -8 0 -20 -7 -27 -15 -10 -12 -10 -15
4 -15 19 0 22 -26 4 -33 -10 -4 -10 -8 1 -15 14 -10 170 -6 180 4 9 9 -112 56
-134 51 -14 -2 -22 0 -19 5 3 5 46 7 96 4 l90 -5 -14 22 c-24 36 -86 61 -156
62 -35 1 -66 -3 -69 -8z m217 -57 c0 -5 -2 -10 -4 -10 -3 0 -8 5 -11 10 -3 6
-1 10 4 10 6 0 11 -4 11 -10z m-140 -55 c0 -8 -7 -15 -16 -15 -14 0 -14 3 -4
15 7 8 14 15 16 15 2 0 4 -7 4 -15z"/>
<path d="M878 1613 c-23 -6 -28 -26 -12 -48 12 -17 14 -17 15 -2 2 25 4 31 12
45 5 6 7 11 5 11 -2 -1 -10 -3 -20 -6z"/>
<path d="M1838 1550 c-3 -30 -5 -56 -3 -58 7 -8 21 76 15 93 -5 14 -9 2 -12
-35z"/>
<path d="M847 1523 c-4 -3 -7 -11 -7 -17 0 -6 5 -5 12 2 6 6 9 14 7 17 -3 3
-9 2 -12 -2z"/>
<path d="M1732 1490 c19 -26 21 -35 11 -60 -17 -44 9 -40 30 5 13 28 14 35 3
35 -8 0 -21 11 -30 25 -9 14 -21 25 -27 25 -5 0 0 -14 13 -30z"/>
<path d="M780 1431 c0 -6 5 -13 10 -16 6 -3 10 1 10 9 0 9 -4 16 -10 16 -5 0
-10 -4 -10 -9z"/>
<path d="M649 1413 c-8 -107 27 -265 75 -339 9 -13 16 -41 16 -63 0 -43 17
-91 33 -91 5 0 7 -6 4 -14 -7 -17 14 -36 65 -58 20 -10 45 -30 55 -45 10 -15
21 -30 24 -33 4 -3 12 -24 18 -47 7 -24 14 -43 17 -43 3 0 2 10 -1 21 -5 16
-3 20 6 17 8 -3 23 -1 33 5 16 8 18 6 13 -7 -4 -9 -2 -16 3 -16 6 0 10 3 10 8
0 4 12 15 28 24 15 10 22 18 15 18 -6 0 -10 9 -8 20 2 11 0 20 -6 20 -5 0 -9
5 -9 11 0 6 7 8 16 5 13 -5 15 -2 11 14 -3 13 0 20 9 20 9 0 11 6 7 18 -6 15
-5 15 10 3 14 -11 21 -11 42 3 29 19 30 22 11 29 -10 4 -13 1 -10 -7 8 -21
-27 -29 -40 -10 -11 15 -14 15 -28 1 -9 -9 -19 -13 -22 -9 -4 3 -11 0 -16 -8
-7 -10 -10 -11 -10 -2 0 6 -9 12 -20 12 -12 0 -20 7 -20 18 -1 15 -2 15 -16
-3 -15 -19 -16 -17 -10 24 7 44 7 45 -13 27 -11 -10 -32 -19 -46 -19 -14 1
-25 -2 -25 -6 0 -4 -9 -7 -19 -7 -11 0 -17 4 -15 8 3 4 -3 8 -13 9 -14 0 -12
3 7 11 14 6 31 10 39 9 7 -1 20 0 29 4 14 5 14 7 2 15 -12 8 -12 10 4 10 11 0
16 5 13 13 -4 10 3 14 21 13 16 -1 26 -6 24 -13 -1 -7 5 -13 14 -13 13 0 11 5
-7 31 -12 17 -27 33 -35 36 -18 7 -6 33 16 33 11 0 22 5 25 10 4 6 -9 10 -33
10 -21 0 -61 7 -87 15 -27 8 -51 12 -53 10 -8 -8 43 -44 63 -45 16 0 17 -2 5
-9 -24 -14 -65 -7 -62 9 2 12 -1 11 -11 -1 -11 -14 -13 -7 -12 50 0 36 -4 69
-9 72 -5 4 -5 12 -2 18 13 20 25 11 28 -20 4 -37 33 -62 47 -40 5 8 19 12 34
9 14 -3 32 -1 39 3 9 6 6 9 -10 9 -15 0 -26 7 -29 20 -3 11 -11 20 -18 20 -12
0 -25 21 -25 41 0 5 10 9 23 10 15 1 10 5 -18 14 -45 15 -38 17 68 19 38 0 71
-2 73 -6 6 -9 44 2 44 13 0 5 -4 9 -10 9 -5 0 -7 6 -4 14 3 9 -4 16 -21 20
-21 5 -24 10 -16 20 9 11 6 12 -14 8 -14 -2 -28 -8 -31 -13 -7 -12 -54 -12
-54 0 0 5 -14 14 -31 21 -25 11 -32 11 -39 0 -5 -8 -16 -15 -26 -16 -10 -2
-34 -21 -54 -43 -41 -48 -51 -51 -41 -13 4 15 6 33 5 40 -1 6 -2 17 -3 22 0 6
-7 10 -15 10 -9 0 -12 8 -8 25 2 15 0 25 -7 25 -6 0 -12 -8 -12 -17z m72 -174
c9 -17 8 -23 -2 -30 -10 -6 -15 -3 -18 9 -2 9 -8 23 -13 30 -8 9 -6 12 5 12 9
0 21 -10 28 -21z m119 -283 c0 -3 -4 -8 -10 -11 -5 -3 -10 -1 -10 4 0 6 5 11
10 11 6 0 10 -2 10 -4z m100 -56 c0 -5 -5 -10 -11 -10 -5 0 -7 5 -4 10 3 6 8
10 11 10 2 0 4 -4 4 -10z"/>
<path d="M1660 1390 c0 -5 5 -10 10 -10 6 0 10 5 10 10 0 6 -4 10 -10 10 -5 0
-10 -4 -10 -10z"/>
<path d="M1050 1302 c6 -13 14 -21 18 -18 3 4 -2 14 -12 24 -18 16 -18 16 -6
-6z"/>
<path d="M1150 1295 c-8 -9 -22 -13 -39 -10 -22 5 -23 4 -6 -4 11 -5 16 -10
10 -10 -5 -1 4 -10 20 -21 l30 -20 -26 0 c-19 0 -28 -6 -32 -21 -4 -16 -11
-19 -26 -14 -12 4 -21 2 -21 -4 0 -17 27 -13 71 10 38 19 42 19 53 3 18 -24
36 -9 36 30 0 46 -48 88 -70 61z"/>
<path d="M1605 1270 c-3 -5 -1 -10 4 -10 6 0 11 5 11 10 0 6 -2 10 -4 10 -3 0
-8 -4 -11 -10z"/>
<path d="M898 1253 c7 -3 16 -2 19 1 4 3 -2 6 -13 5 -11 0 -14 -3 -6 -6z"/>
<path d="M1693 1248 c-6 -7 -14 -24 -17 -38 -6 -21 -4 -20 15 8 21 32 22 56 2
30z"/>
<path d="M1015 1190 c3 -5 -1 -11 -7 -13 -7 -3 -1 -6 15 -6 31 -1 36 14 7 22
-11 3 -18 1 -15 -3z"/>
<path d="M1181 1173 c-1 -6 -4 -20 -7 -30 -5 -17 -5 -17 6 0 6 10 9 23 6 30
-3 9 -5 9 -5 0z"/>
<path d="M1277 1101 c-3 -14 0 -17 14 -14 15 4 17 8 8 19 -15 18 -16 18 -22
-5z"/>
<path d="M1355 1060 c-3 -5 -1 -10 4 -10 6 0 11 5 11 10 0 6 -2 10 -4 10 -3 0
-8 -4 -11 -10z"/>
<path d="M1453 1048 c1 -7 -6 -12 -17 -11 -13 1 -15 -2 -7 -10 8 -8 17 -5 33
11 19 19 20 22 5 22 -9 0 -16 -6 -14 -12z"/>
<path d="M1420 1000 c0 -5 5 -10 11 -10 5 0 7 5 4 10 -3 6 -8 10 -11 10 -2 0
-4 -4 -4 -10z"/>
<path d="M1390 980 c0 -5 5 -10 11 -10 5 0 7 5 4 10 -3 6 -8 10 -11 10 -2 0
-4 -4 -4 -10z"/>
<path d="M1628 898 c-7 -83 -30 -125 -134 -249 -60 -72 -84 -109 -82 -124 1
-12 -4 -31 -12 -41 -13 -17 -13 -18 0 -7 8 6 20 11 25 10 15 -2 98 124 155
235 54 104 79 194 63 223 -8 13 -11 2 -15 -47z"/>
<path d="M995 940 c27 -12 43 -12 25 0 -8 5 -22 9 -30 9 -10 0 -8 -3 5 -9z"/>
<path d="M873 685 c-41 -105 -55 -178 -30 -156 11 8 17 3 31 -25 18 -38 60
-234 52 -242 -3 -2 -1 -13 5 -23 8 -16 6 -19 -11 -19 -19 0 -20 -4 -15 -46 3
-29 2 -43 -5 -39 -5 3 -10 -2 -10 -11 0 -15 4 -14 25 6 28 27 47 20 22 -8 -22
-25 -22 -26 16 -77 27 -38 37 -44 68 -45 74 0 91 91 29 155 -22 23 -36 53 -49
106 -11 41 -35 119 -56 174 -21 57 -41 137 -48 190 -11 85 -13 88 -24 60z"/>
<path d="M951 654 c0 -11 3 -14 6 -6 3 7 2 16 -1 19 -3 4 -6 -2 -5 -13z"/>
<path d="M1810 520 c12 -8 11 -10 -7 -10 -15 0 -24 -9 -32 -32 -6 -17 -9 -33
-7 -35 6 -6 76 66 76 77 0 6 -10 10 -22 10 -19 0 -20 -2 -8 -10z"/>
<path d="M1305 440 c-3 -5 -2 -10 4 -10 5 0 13 5 16 10 3 6 2 10 -4 10 -5 0
-13 -4 -16 -10z"/>
<path d="M1276 211 c-28 -30 -49 -121 -27 -121 6 0 11 5 11 11 0 6 12 8 28 5
46 -8 72 -18 72 -26 0 -11 57 -30 91 -30 16 0 29 4 29 9 0 5 3 16 6 24 4 10
-23 38 -83 86 -48 39 -90 71 -94 71 -3 0 -18 -13 -33 -29z"/>
<path d="M712 190 c-53 -38 -65 -60 -52 -97 10 -27 9 -27 -6 -8 -16 19 -16 19
-10 -10 7 -29 58 -86 62 -69 1 5 5 21 8 36 4 15 20 43 37 63 27 31 30 39 24
75 -4 22 -10 40 -14 40 -5 0 -26 -13 -49 -30z"/>
<path d="M833 83 c8 -16 17 -40 21 -55 4 -19 13 -28 26 -28 17 0 19 4 14 28
-13 53 -34 82 -62 82 -10 0 -10 -6 1 -27z"/>
</g>
</svg>
